<svg xmlns="http://www.w3.org/2000/svg" height="48px" width="48px" viewBox="0 0 200 200">
<rect fill="none" width="200" height="200"></rect>
<path fill="#00bbb0" d="M40.36,142.33h-.1a35.26,35.26,0,0,1-9-69.35,63.31,63.31,0,0,1,62.93-57.1,63.69,63.69,0,0,1,57.64,37.31,44.57,44.57,0,0,1-.62,89.12H115.41v-10h35.48a34.57,34.57,0,0,0-.46-69.14c-.55,0-1.1,0-1.66,0l-3.65.21L143.81,60A53.59,53.59,0,0,0,94.15,25.88,53.29,53.29,0,0,0,41,77.28l-.14,4.19-4.15.59a25.26,25.26,0,0,0,3.59,50.27l46.45-.2,0,10Z"></path>
<path fill="#00bbb0" d="M115.21,184.12H84.79a5,5,0,0,1-5-5v-65.7H58.17a5,5,0,0,1-3.54-8.54L96.47,63.05a5,5,0,0,1,7.07,0l41.83,41.83a5,5,0,0,1-3.54,8.54H120.21v65.7A5,5,0,0,1,115.21,184.12Zm-25.42-10h20.42v-65.7a5,5,0,0,1,5-5h14.55L100,73.66,70.24,103.42H84.79a5,5,0,0,1,5,5Z"></path>
</svg>