<svg xmlns="http://www.w3.org/2000/svg" height="48px" width="48px" viewBox="0 0 200 200">
<rect fill="none" width="200" height="200"></rect>
<path fill="#00bbb0" d="M91.64,195H19.94A15,15,0,0,1,5,180.06v-71.7a15,15,0,0,1,14.94-15h71.7a15,15,0,0,1,15,15v71.7A15,15,0,0,1,91.64,195Zm-71.7-91.59a5,5,0,0,0-4.94,5v71.7A5,5,0,0,0,19.94,185h71.7a5,5,0,0,0,5-4.94v-71.7a5,5,0,0,0-5-5Z"></path>
<path fill="#00bbb0" d="M121.12,165.53H101.33v-10h19.79a5,5,0,0,0,4.94-4.94V78.88a5,5,0,0,0-4.94-4.94H49.41a5,5,0,0,0-4.94,4.94v22.4h-10V78.88A15,15,0,0,1,49.41,63.94h71.71a15,15,0,0,1,14.94,14.94v71.71A15,15,0,0,1,121.12,165.53Z"></path>
<path fill="#00bbb0" d="M150.59,136.06H131.06v-10h19.53a5,5,0,0,0,4.94-4.94V49.41a5,5,0,0,0-4.94-4.94H78.88a5,5,0,0,0-4.94,4.94V69.26h-10V49.41A15,15,0,0,1,78.88,34.47h71.71a15,15,0,0,1,14.94,14.94v71.71A15,15,0,0,1,150.59,136.06Z"></path>
<path fill="#00bbb0" d="M180.06,106.59H160.53v-10h19.53a5,5,0,0,0,4.94-5V19.94A5,5,0,0,0,180.06,15h-71.7a5,5,0,0,0-5,4.94V39.47h-10V19.94A15,15,0,0,1,108.36,5h71.7A15,15,0,0,1,195,19.94v71.7A15,15,0,0,1,180.06,106.59Z"></path>
</svg>