<svg xmlns="http://www.w3.org/2000/svg" height="48px" width="48px" viewBox="0 0 200 200">
<rect fill="none" width="200" height="200"></rect>
<path fill="#00bbb0" d="M100,195a95,95,0,1,1,95-95A95.11,95.11,0,0,1,100,195Zm0-180a85,85,0,1,0,85,85A85.1,85.1,0,0,0,100,15Z"></path>
<path fill="#00bbb0" d="M98.07,150.79A34.12,34.12,0,0,1,64,116.71V83.29a34.09,34.09,0,0,1,68.17,0v33.42A34.12,34.12,0,0,1,98.07,150.79Zm0-91.58A24.11,24.11,0,0,0,74,83.29v33.42a24.09,24.09,0,0,0,48.17,0V83.29A24.11,24.11,0,0,0,98.07,59.21Z"></path>
</svg>