<svg xmlns="http://www.w3.org/2000/svg" height="48px" width="48px" viewBox="0 0 200 200">
  <rect fill="none" width="200" height="200"></rect>
  <path fill="#00bbb0" d="M146.89,173.4H49.54A23,23,0,0,1,26.6,150.46V49.54A23,23,0,0,1,49.54,26.6H150.46A23,23,0,0,1,173.4,49.54v97.35h-10V49.54A13,13,0,0,0,150.46,36.6H49.54A13,13,0,0,0,36.6,49.54V150.46A13,13,0,0,0,49.54,163.4h97.35Z"></path>
  <path fill="#00bbb0" d="M168.49,195a5,5,0,0,1-3.53-1.46l-57.69-57.69a5.12,5.12,0,0,1-1.1-1.66L91.59,98.1a5,5,0,0,1,6.51-6.51l36.09,14.58a5,5,0,0,1,1.66,1.1L193.54,165a5,5,0,0,1,0,7.07L172,193.54A5,5,0,0,1,168.49,195Zm-53.43-65.5,53.43,53.43,14.44-14.44L129.5,115.06l-24.23-9.79Z"></path>
</svg>