<svg xmlns="http://www.w3.org/2000/svg" height="48px" width="48px" viewBox="0 0 200 200">
<rect fill="none" width="200" height="200"></rect>
<path fill="#00bbb0" d="M111.63,194.23a13.77,13.77,0,0,1-12.14-7.32l-5-9.44A12.61,12.61,0,0,0,85.26,171l-.57-.1a12.59,12.59,0,0,0-10.67,3l-8,7.22a13.8,13.8,0,0,1-16.27,1.64l-.32-.19a13.84,13.84,0,0,1-6.48-14.75l2.21-10.52a12.63,12.63,0,0,0-2.83-10.81l-.34-.41a12.6,12.6,0,0,0-10.19-4.64l-10.32.38a13.91,13.91,0,0,1-13.56-9l0-.14a13.84,13.84,0,0,1,4.45-15.82l8-6.24a12.63,12.63,0,0,0,4.79-10.11c0-.27,0-.54,0-.82a12.68,12.68,0,0,0-4.8-10.18l-7.86-6.15A14,14,0,0,1,7.81,67.6l.05-.14a14.16,14.16,0,0,1,13.87-9.34l9.64.36A12.38,12.38,0,0,0,41.5,53.92c.36-.46.73-.91,1.11-1.36a12.42,12.42,0,0,0,2.52-10.5l-2-9.73a13.79,13.79,0,0,1,6.67-14.85l.44-.25A13.83,13.83,0,0,1,66.32,19l7.08,6.43a12.36,12.36,0,0,0,10.66,3c.6-.11,1.2-.23,1.8-.33a12.16,12.16,0,0,0,8.8-6.21l4.74-8.85A13.76,13.76,0,0,1,114.23,6l.52.1a13.86,13.86,0,0,1,11,11.67l1.31,9.39a12.7,12.7,0,0,0,6.08,9.25l1.53.91a12.36,12.36,0,0,0,11.13.82l8.86-3.63a13.72,13.72,0,0,1,15.79,3.85l.47.56a13.78,13.78,0,0,1,1,16.06L167,62.89a13.89,13.89,0,0,0-1.34,12l.07.2a14.07,14.07,0,0,0,9,8.72l8.62,2.72A13.78,13.78,0,0,1,193,99.69v.36a13.91,13.91,0,0,1-9.6,13.39l-9.72,3.11a12.39,12.39,0,0,0-7.92,7.59c-.13.37-.27.75-.41,1.13a12.44,12.44,0,0,0,1.15,10.85l5.49,8.82A13.77,13.77,0,0,1,171,161l-.48.57a13.72,13.72,0,0,1-15.77,3.86l-9.69-4a12.47,12.47,0,0,0-11,.77l-.81.47a12.43,12.43,0,0,0-6.09,9.13l-1.38,10.33a13.75,13.75,0,0,1-11.19,11.76L114,194A13.18,13.18,0,0,1,111.63,194.23ZM82.4,160.7a23.91,23.91,0,0,1,4,.35l.47.08a22.57,22.57,0,0,1,16.38,11.63l5,9.44a3.78,3.78,0,0,0,4,2l.59-.11a3.74,3.74,0,0,0,3-3.24l1.39-10.33a22.45,22.45,0,0,1,11-16.47l.71-.42a22.52,22.52,0,0,1,19.85-1.4l9.69,3.95a3.8,3.8,0,0,0,4.32-1l.43-.51a3.79,3.79,0,0,0,.25-4.4L158,141.4a22.51,22.51,0,0,1-2-19.63c.12-.32.24-.64.35-1A22.46,22.46,0,0,1,170.66,107l9.72-3.12A3.85,3.85,0,0,0,183,100.2v-.47a3.81,3.81,0,0,0-2.68-3.65l-8.62-2.72a24.11,24.11,0,0,1-15.43-15L161,76.63l-4.74,1.59a23.8,23.8,0,0,1,2.29-20.63l4.92-7.88a3.77,3.77,0,0,0-.24-4.41l-.42-.51a3.83,3.83,0,0,0-4.33-1l-8.86,3.64a22.39,22.39,0,0,1-20.14-1.55c-.43-.26-.87-.53-1.31-.78a22.79,22.79,0,0,1-11-16.53l-1.31-9.4a3.83,3.83,0,0,0-3.07-3.23l-.39-.08a3.81,3.81,0,0,0-4.17,1.94l-4.74,8.86A22.13,22.13,0,0,1,87.56,38c-.52.08-1,.18-1.55.28a22.41,22.41,0,0,1-19.33-5.44L59.6,26.42a3.85,3.85,0,0,0-4.48-.49l-.38.22a3.84,3.84,0,0,0-1.87,4.12L54.92,40a22.55,22.55,0,0,1-4.65,19c-.32.38-.64.78-1,1.17A22.38,22.38,0,0,1,31,68.47l-9.64-.36a4.2,4.2,0,0,0-4.08,2.72l0,.06a4,4,0,0,0,1.31,4.57l7.87,6.15a22.58,22.58,0,0,1,8.64,18c0,.29,0,.49,0,.7a22.65,22.65,0,0,1-8.63,18.18l-8,6.25a3.88,3.88,0,0,0-1.25,4.44l.05.13a3.93,3.93,0,0,0,3.81,2.54l10.33-.38a22.64,22.64,0,0,1,18.25,8.23l.28.34a22.58,22.58,0,0,1,5,19.35l-2.22,10.51A3.85,3.85,0,0,0,54.52,174l.27.16a3.81,3.81,0,0,0,4.52-.45l8-7.22A22.41,22.41,0,0,1,82.4,160.7Z"></path>
<path fill="#00bbb0" d="M100,146.82a46.83,46.83,0,1,1,33.1-13.73A46.87,46.87,0,0,1,100,146.82Zm0-83.64A36.77,36.77,0,1,0,126,74,36.87,36.87,0,0,0,100,63.18Z"></path>
</svg>