<svg width="48" height="48" viewBox="0 0 90 90" fill="none" xmlns="http://www.w3.org/2000/svg">
<mask id="path-1-inside-1" fill="white">
<path fill-rule="evenodd" clip-rule="evenodd" d="M81.0184 31.0184L67.8191 17.8191L50 35.6382L32.1809 17.8191L18.9816 31.0184L36.8007 48.8375L18.3216 67.3166L31.5209 80.5159L50 62.0368L68.4791 80.5159L81.6784 67.3166L63.1993 48.8375L81.0184 31.0184Z"/>
</mask>
<path d="M67.8191 17.8191L69.9404 15.6978L67.8191 13.5765L65.6978 15.6978L67.8191 17.8191ZM81.0184 31.0184L83.1397 33.1397L85.2611 31.0184L83.1397 28.8971L81.0184 31.0184ZM50 35.6382L47.8787 37.7595L50 39.8808L52.1213 37.7595L50 35.6382ZM32.1809 17.8191L34.3022 15.6978L32.1809 13.5764L30.0596 15.6978L32.1809 17.8191ZM18.9816 31.0184L16.8603 28.8971L14.7389 31.0184L16.8603 33.1397L18.9816 31.0184ZM36.8007 48.8375L38.922 50.9588L41.0433 48.8375L38.922 46.7162L36.8007 48.8375ZM18.3216 67.3166L16.2003 65.1952L14.079 67.3166L16.2003 69.4379L18.3216 67.3166ZM31.5209 80.5159L29.3996 82.6372L31.5209 84.7585L33.6423 82.6372L31.5209 80.5159ZM50 62.0368L52.1213 59.9155L50 57.7942L47.8787 59.9155L50 62.0368ZM68.4791 80.5159L66.3577 82.6372L68.4791 84.7585L70.6004 82.6372L68.4791 80.5159ZM81.6784 67.3166L83.7997 69.4379L85.921 67.3166L83.7997 65.1952L81.6784 67.3166ZM63.1993 48.8375L61.078 46.7162L58.9567 48.8375L61.078 50.9588L63.1993 48.8375ZM65.6978 19.9404L78.8971 33.1397L83.1397 28.8971L69.9404 15.6978L65.6978 19.9404ZM52.1213 37.7595L69.9404 19.9404L65.6978 15.6978L47.8787 33.5169L52.1213 37.7595ZM30.0596 19.9404L47.8787 37.7595L52.1213 33.5169L34.3022 15.6978L30.0596 19.9404ZM21.1029 33.1397L34.3022 19.9404L30.0596 15.6978L16.8603 28.8971L21.1029 33.1397ZM38.922 46.7162L21.1029 28.8971L16.8603 33.1397L34.6794 50.9588L38.922 46.7162ZM20.4429 69.4379L38.922 50.9588L34.6794 46.7162L16.2003 65.1952L20.4429 69.4379ZM33.6423 78.3946L20.4429 65.1952L16.2003 69.4379L29.3996 82.6372L33.6423 78.3946ZM47.8787 59.9155L29.3996 78.3946L33.6423 82.6372L52.1213 64.1582L47.8787 59.9155ZM70.6004 78.3946L52.1213 59.9155L47.8787 64.1582L66.3577 82.6372L70.6004 78.3946ZM79.5571 65.1952L66.3577 78.3946L70.6004 82.6372L83.7997 69.4379L79.5571 65.1952ZM61.078 50.9588L79.5571 69.4379L83.7997 65.1952L65.3206 46.7162L61.078 50.9588ZM78.8971 28.8971L61.078 46.7162L65.3206 50.9588L83.1397 33.1397L78.8971 28.8971Z" fill="#C4C4C4" mask="url(#path-1-inside-1)"/>
</svg>