<svg width="48" height="48" viewBox="0 0 79 79" fill="none" xmlns="http://www.w3.org/2000/svg">
<path d="M29 2V0.5H27.5V2H29ZM49 2H50.5V0.5H49V2ZM29 29V30.5H30.5V29H29ZM2 29L2 27.5H0.5V29H2ZM2 49H0.5V50.5H2V49ZM29 49H30.5V47.5H29V49ZM29 77H27.5V78.5H29V77ZM49 77V78.5H50.5V77H49ZM49 49V47.5H47.5V49H49ZM77 49V50.5H78.5V49H77ZM77 29H78.5V27.5H77V29ZM49 29H47.5V30.5H49V29ZM29 3.5H49V0.5H29V3.5ZM30.5 29V2H27.5V29H30.5ZM2 30.5L29 30.5V27.5L2 27.5L2 30.5ZM3.5 49V29H0.5V49H3.5ZM29 47.5H2V50.5H29V47.5ZM30.5 77V49H27.5V77H30.5ZM49 75.5H29V78.5H49V75.5ZM47.5 49V77H50.5V49H47.5ZM77 47.5H49V50.5H77V47.5ZM75.5 29V49H78.5V29H75.5ZM49 30.5L77 30.5V27.5L49 27.5V30.5ZM47.5 2V29H50.5V2H47.5Z" fill="#C4C4C4"/>
</svg>